<svg xmlns="http://www.w3.org/2000/svg" width="480pt" height="290pt" viewBox="0 0 480 290" version="1.1" xmlns:xlink="http://www.w3.org/1999/xlink">
  <g id="surface2" transform="matrix(1,0,0,1,-4,74)">
    <path style="stroke:none;fill-rule:evenodd;fill:rgb(90.980392%,59.215686%,9.803922%);fill-opacity:1" d="M 251.199219 89.300781 C 250.933594 88.867188 250.683594 88.449219 250.449219 88.050781 L 250.449219 103.199219 C 250.484375 103.500000 250.484375 103.785156 250.449219 104.050781 L 250.449219 107.398438 L 249.449219 107.050781 C 245.382812 105.648438 240.734375 104.949219 235.500000 104.949219 C 230.566406 105.050781 226.398438 105.464844 223.000000 106.199219 C 219.632812 106.933594 217.867188 107.351562 217.699219 107.449219 L 216.699219 107.750000 L 216.898438 71.500000 C 216.867188 71.500000 216.832031 71.515625 216.800781 71.550781 C 216.632812 71.582031 216.464844 71.632812 216.300781 71.699219 C 216.066406 71.800781 215.832031 71.882812 215.601562 71.949219 C 215.433594 72.015625 215.265625 72.082031 215.101562 72.148438 C 214.898438 72.250000 214.683594 72.332031 214.449219 72.398438 C 214.285156 72.464844 214.132812 72.535156 214.000000 72.601562 C 213.765625 72.699219 213.535156 72.816406 213.300781 72.949219 C 213.167969 72.984375 213.035156 73.035156 212.898438 73.101562 C 212.566406 73.265625 212.234375 73.433594 211.898438 73.601562 L 211.898438 114.101562 C 218.699219 111.535156 225.917969 110.234375 233.550781 110.199219 C 241.148438 110.234375 248.332031 111.515625 255.101562 114.050781 L 255.101562 93.550781 C 253.332031 92.214844 252.035156 90.800781 251.199219 89.300781 "/>
    <path style="stroke:none;fill-rule:evenodd;fill:rgb(90.980392%,59.215686%,9.803922%);fill-opacity:1" d="M 250.500000 82.101562 C 250.566406 81.933594 250.648438 81.765625 250.750000 81.601562 C 251.917969 79.667969 253.382812 78.015625 255.148438 76.648438 L 255.148438 71.449219 C 253.785156 71.117188 252.234375 70.800781 250.500000 70.500000 L 250.500000 82.101562 "/>
    <path style="stroke:none;fill-rule:evenodd;fill:rgb(69.019608%,73.725490%,13.333333%);fill-opacity:1" d="M 243.800781 65.000000 L 243.800781 48.550781 C 240.535156 48.082031 237.199219 47.851562 233.800781 47.851562 C 233.800781 47.851562 233.785156 47.851562 233.750000 47.851562 C 233.648438 49.851562 234.234375 52.566406 235.500000 56.000000 C 236.800781 59.433594 239.566406 62.433594 243.800781 65.000000 "/>
    <path style="stroke:none;fill-rule:evenodd;fill:rgb(69.019608%,73.725490%,13.333333%);fill-opacity:1" d="M 232.800781 47.898438 C 229.500000 47.933594 226.250000 48.199219 223.050781 48.699219 L 223.050781 64.750000 C 227.148438 62.148438 229.816406 59.183594 231.050781 55.851562 C 232.316406 52.515625 232.898438 49.867188 232.800781 47.898438 "/>
    <path style="stroke:none;fill-rule:evenodd;fill:rgb(90.980392%,59.215686%,9.803922%);fill-opacity:1" d="M 250.250000 42.050781 L 250.750000 42.050781 C 251.351562 40.984375 251.648438 39.832031 251.648438 38.601562 C 251.285156 34.667969 248.464844 32.148438 243.199219 31.050781 C 243.000000 30.984375 242.800781 30.933594 242.601562 30.898438 C 240.101562 33.398438 237.148438 34.683594 233.750000 34.750000 C 230.316406 34.683594 227.367188 33.398438 224.898438 30.898438 C 224.667969 30.933594 224.449219 30.984375 224.250000 31.050781 C 218.984375 32.148438 216.167969 34.667969 215.800781 38.601562 C 215.800781 39.832031 216.101562 40.984375 216.699219 42.050781 L 250.250000 42.050781 "/>
    <path style="stroke:none;fill-rule:evenodd;fill:rgb(37.254902%,37.647059%,29.411765%);fill-opacity:1" d="M 224.300781 124.398438 C 219.035156 126.265625 215.417969 128.750000 213.449219 131.851562 C 215.117188 136.214844 216.082031 140.484375 216.351562 144.648438 L 228.000000 144.648438 C 227.699219 144.683594 226.800781 143.101562 225.300781 139.898438 C 223.800781 136.667969 223.464844 131.500000 224.300781 124.398438 "/>
    <path style="stroke:none;fill-rule:evenodd;fill:rgb(37.254902%,37.647059%,29.411765%);fill-opacity:1" d="M 216.949219 71.500000 C 216.917969 71.500000 216.882812 71.515625 216.851562 71.550781 C 216.882812 71.515625 216.917969 71.500000 216.949219 71.500000 "/>
    <path style="stroke:none;fill-rule:evenodd;fill:rgb(37.254902%,37.647059%,29.411765%);fill-opacity:1" d="M 280.250000 89.601562 C 283.750000 88.367188 286.000000 88.714844 287.000000 90.648438 C 287.964844 92.617188 288.398438 93.800781 288.300781 94.199219 C 286.632812 91.933594 284.917969 90.566406 283.148438 90.101562 C 281.382812 89.667969 280.417969 89.500000 280.250000 89.601562 M 292.500000 105.398438 C 292.535156 105.300781 292.667969 104.082031 292.898438 101.750000 C 293.132812 99.417969 293.199219 96.566406 293.101562 93.199219 L 293.050781 93.050781 C 293.082031 92.550781 292.199219 91.082031 290.398438 88.648438 C 288.601562 86.250000 285.367188 84.882812 280.699219 84.550781 L 280.500000 84.550781 C 277.035156 84.550781 274.367188 83.515625 272.500000 81.449219 C 270.265625 78.082031 269.332031 75.265625 269.699219 73.000000 C 269.265625 73.066406 268.851562 73.148438 268.449219 73.250000 L 268.398438 73.148438 C 268.398438 73.148438 268.300781 73.183594 268.101562 73.250000 C 266.765625 73.449219 264.250000 74.351562 260.550781 75.949219 C 256.851562 77.550781 253.816406 80.015625 251.449219 83.351562 C 250.250000 85.417969 250.167969 87.382812 251.199219 89.250000 C 252.035156 90.785156 253.332031 92.199219 255.101562 93.500000 C 255.566406 93.867188 256.066406 94.214844 256.601562 94.550781 L 256.601562 116.148438 L 254.601562 115.398438 C 247.800781 112.933594 240.785156 111.683594 233.550781 111.648438 C 226.285156 111.683594 219.234375 112.949219 212.398438 115.449219 L 210.398438 116.199219 L 210.398438 73.898438 C 208.035156 75.132812 206.015625 76.535156 204.351562 78.101562 C 201.449219 80.101562 198.699219 83.699219 196.101562 88.898438 C 193.535156 94.132812 192.250000 101.699219 192.250000 111.601562 C 192.316406 111.832031 192.300781 112.816406 192.199219 114.550781 C 192.132812 116.285156 191.535156 117.984375 190.398438 119.648438 C 187.898438 119.882812 186.082031 120.601562 184.949219 121.800781 C 183.851562 122.964844 183.316406 123.632812 183.351562 123.800781 C 185.449219 124.332031 187.117188 124.167969 188.351562 123.300781 C 189.550781 122.433594 190.398438 121.515625 190.898438 120.550781 C 192.265625 118.917969 193.148438 117.148438 193.550781 115.250000 C 193.949219 113.351562 194.132812 111.898438 194.101562 110.898438 C 194.332031 104.832031 195.132812 99.898438 196.500000 96.101562 C 196.433594 103.199219 197.300781 109.000000 199.101562 113.500000 L 199.199219 114.000000 C 199.433594 114.933594 199.648438 115.867188 199.851562 116.800781 C 200.214844 118.433594 200.500000 120.035156 200.699219 121.601562 C 201.433594 128.066406 201.535156 133.667969 201.000000 138.398438 C 200.464844 143.132812 200.132812 146.382812 200.000000 148.148438 L 213.949219 148.148438 C 211.417969 142.582031 211.148438 137.285156 213.148438 132.250000 C 215.582031 125.683594 224.351562 121.101562 239.449219 118.500000 C 244.683594 117.800781 248.832031 118.300781 251.898438 120.000000 C 254.933594 121.699219 257.148438 124.066406 258.550781 127.101562 C 256.750000 124.464844 253.750000 122.617188 249.550781 121.550781 C 249.683594 128.214844 248.750000 133.683594 246.750000 137.949219 C 244.785156 142.250000 243.648438 144.464844 243.351562 144.601562 L 254.601562 144.601562 C 257.234375 139.632812 259.050781 135.035156 260.050781 130.800781 C 261.117188 134.734375 261.617188 138.382812 261.550781 141.750000 C 261.515625 145.117188 261.398438 147.250000 261.199219 148.148438 L 273.550781 148.148438 C 273.683594 146.515625 273.765625 144.949219 273.800781 143.449219 C 273.964844 134.285156 273.351562 126.582031 271.949219 120.351562 C 271.714844 119.117188 271.449219 117.933594 271.148438 116.800781 L 271.148438 116.851562 C 271.117188 116.550781 270.535156 114.582031 269.398438 110.949219 C 268.234375 107.285156 266.667969 103.765625 264.699219 100.398438 C 264.800781 100.433594 265.449219 101.132812 266.648438 102.500000 C 267.882812 103.867188 269.101562 105.632812 270.300781 107.800781 C 273.964844 106.699219 276.714844 106.816406 278.550781 108.148438 C 280.382812 109.449219 281.535156 110.699219 282.000000 111.898438 C 281.964844 111.898438 281.964844 111.898438 282.000000 111.898438 C 282.035156 112.000000 282.066406 112.066406 282.101562 112.101562 C 282.101562 112.132812 282.101562 112.148438 282.101562 112.148438 C 282.132812 112.214844 282.148438 112.265625 282.148438 112.300781 C 282.183594 112.332031 282.199219 112.351562 282.199219 112.351562 C 282.199219 112.417969 282.214844 112.464844 282.250000 112.500000 C 282.250000 112.500000 282.250000 112.515625 282.250000 112.550781 C 282.285156 112.550781 282.300781 112.566406 282.300781 112.601562 C 282.300781 112.632812 282.300781 112.648438 282.300781 112.648438 C 282.300781 112.683594 282.316406 112.699219 282.351562 112.699219 C 282.351562 112.699219 282.351562 112.699219 282.351562 112.699219 C 285.382812 122.933594 288.699219 129.332031 292.300781 131.898438 C 295.933594 134.500000 299.082031 135.351562 301.750000 134.449219 C 304.417969 133.515625 305.816406 132.882812 305.949219 132.550781 L 306.000000 127.851562 C 300.500000 130.582031 296.816406 130.066406 294.949219 126.300781 C 293.082031 122.500000 292.167969 118.183594 292.199219 113.351562 C 292.234375 108.515625 292.332031 105.867188 292.500000 105.398438 "/>
    <path style="stroke:none;fill-rule:evenodd;fill:rgb(37.254902%,37.647059%,29.411765%);fill-opacity:1" d="M 257.148438 72.351562 C 257.148438 72.351562 257.132812 72.351562 257.101562 72.351562 C 256.933594 72.285156 256.765625 72.234375 256.601562 72.199219 L 256.601562 75.550781 C 257.832031 74.683594 259.066406 73.933594 260.300781 73.300781 C 259.464844 73.000000 258.417969 72.683594 257.148438 72.351562 "/>
    <path style="stroke:none;fill-rule:evenodd;fill:rgb(37.254902%,37.647059%,29.411765%);fill-opacity:1" d="M 247.500000 69.050781 L 247.500000 49.199219 C 246.667969 49.035156 245.851562 48.882812 245.050781 48.750000 L 245.050781 66.300781 L 221.800781 66.300781 L 221.800781 48.898438 C 220.964844 49.035156 220.117188 49.199219 219.250000 49.398438 L 219.250000 69.851562 C 223.617188 68.816406 228.765625 68.300781 234.699219 68.300781 C 240.300781 68.398438 244.566406 68.648438 247.500000 69.050781 "/>
    <path style="stroke:none;fill-rule:evenodd;fill:rgb(94.509804%,89.803922%,78.039216%);fill-opacity:1" d="M 229.050781 90.898438 C 228.949219 90.765625 228.851562 90.632812 228.750000 90.500000 C 228.851562 90.632812 228.949219 90.765625 229.050781 90.898438 "/>
    <path style="stroke:none;fill-rule:evenodd;fill:rgb(94.509804%,89.803922%,78.039216%);fill-opacity:1" d="M 228.648438 90.300781 C 228.550781 90.101562 228.449219 89.882812 228.351562 89.648438 C 228.449219 89.882812 228.550781 90.101562 228.648438 90.300781 "/>
    <path style="stroke:none;fill-rule:evenodd;fill:rgb(94.509804%,89.803922%,78.039216%);fill-opacity:1" d="M 228.351562 89.648438 C 228.250000 89.417969 228.167969 89.148438 228.101562 88.851562 C 228.167969 89.148438 228.250000 89.417969 228.351562 89.648438 "/>
    <path style="stroke:none;fill-rule:evenodd;fill:rgb(94.509804%,89.803922%,78.039216%);fill-opacity:1" d="M 229.550781 91.449219 C 229.417969 91.351562 229.285156 91.214844 229.148438 91.050781 C 229.285156 91.214844 229.417969 91.351562 229.550781 91.449219 "/>
    <path style="stroke:none;fill-rule:evenodd;fill:rgb(94.509804%,89.803922%,78.039216%);fill-opacity:1" d="M 227.851562 87.550781 C 227.816406 87.214844 227.800781 86.851562 227.800781 86.449219 C 227.800781 86.851562 227.816406 87.214844 227.851562 87.550781 "/>
    <path style="stroke:none;fill-rule:evenodd;fill:rgb(94.509804%,89.803922%,78.039216%);fill-opacity:1" d="M 228.000000 88.601562 C 227.964844 88.367188 227.933594 88.132812 227.898438 87.898438 C 227.933594 88.132812 227.964844 88.367188 228.000000 88.601562 "/>
    <path style="stroke:none;fill-rule:evenodd;fill:rgb(94.509804%,89.803922%,78.039216%);fill-opacity:1" d="M 232.000000 92.449219 C 231.898438 92.417969 231.800781 92.398438 231.699219 92.398438 C 231.800781 92.433594 231.898438 92.449219 232.000000 92.449219 "/>
    <path style="stroke:none;fill-rule:evenodd;fill:rgb(94.509804%,89.803922%,78.039216%);fill-opacity:1" d="M 230.500000 92.101562 C 230.367188 92.035156 230.250000 91.964844 230.148438 91.898438 C 230.250000 91.964844 230.367188 92.035156 230.500000 92.101562 "/>
    <path style="stroke:none;fill-rule:evenodd;fill:rgb(94.509804%,89.803922%,78.039216%);fill-opacity:1" d="M 230.050781 91.851562 C 229.882812 91.750000 229.734375 91.632812 229.601562 91.500000 C 229.734375 91.632812 229.882812 91.750000 230.050781 91.851562 "/>
    <path style="stroke:none;fill-rule:evenodd;fill:rgb(94.509804%,89.803922%,78.039216%);fill-opacity:1" d="M 231.550781 92.398438 C 231.417969 92.367188 231.265625 92.332031 231.101562 92.300781 C 231.265625 92.332031 231.417969 92.367188 231.550781 92.398438 "/>
    <path style="stroke:none;fill-rule:evenodd;fill:rgb(94.509804%,89.803922%,78.039216%);fill-opacity:1" d="M 231.101562 92.250000 C 230.964844 92.214844 230.816406 92.167969 230.648438 92.101562 C 230.816406 92.167969 230.964844 92.214844 231.101562 92.250000 "/>
    <path style="stroke:none;fill-rule:evenodd;fill:rgb(94.509804%,89.803922%,78.039216%);fill-opacity:1" d="M 238.750000 81.148438 C 238.816406 81.148438 238.882812 81.132812 238.949219 81.101562 C 238.882812 81.132812 238.816406 81.148438 238.750000 81.148438 "/>
    <path style="stroke:none;fill-rule:evenodd;fill:rgb(94.509804%,89.803922%,78.039216%);fill-opacity:1" d="M 239.398438 81.000000 C 239.464844 80.964844 239.550781 80.949219 239.648438 80.949219 C 239.550781 80.949219 239.464844 80.964844 239.398438 81.000000 "/>
    <path style="stroke:none;fill-rule:evenodd;fill:rgb(94.509804%,89.803922%,78.039216%);fill-opacity:1" d="M 238.398438 81.300781 C 238.464844 81.300781 238.535156 81.285156 238.601562 81.250000 C 238.535156 81.285156 238.464844 81.300781 238.398438 81.300781 "/>
    <path style="stroke:none;fill-rule:evenodd;fill:rgb(94.509804%,89.803922%,78.039216%);fill-opacity:1" d="M 239.050781 81.101562 C 239.117188 81.066406 239.183594 81.050781 239.250000 81.050781 C 239.183594 81.050781 239.117188 81.066406 239.050781 81.101562 "/>
    <path style="stroke:none;fill-rule:evenodd;fill:rgb(94.509804%,89.803922%,78.039216%);fill-opacity:1" d="M 238.050781 81.449219 C 238.117188 81.417969 238.183594 81.382812 238.250000 81.351562 C 238.183594 81.382812 238.117188 81.417969 238.050781 81.449219 "/>
    <path style="stroke:none;fill-rule:evenodd;fill:rgb(94.509804%,89.803922%,78.039216%);fill-opacity:1" d="M 237.648438 81.601562 C 237.714844 81.566406 237.785156 81.535156 237.851562 81.500000 C 237.785156 81.535156 237.714844 81.566406 237.648438 81.601562 "/>
    <path style="stroke:none;fill-rule:evenodd;fill:rgb(94.509804%,89.803922%,78.039216%);fill-opacity:1" d="M 239.250000 86.449219 C 239.250000 86.851562 239.234375 87.214844 239.199219 87.550781 C 239.234375 87.214844 239.250000 86.851562 239.250000 86.449219 "/>
    <path style="stroke:none;fill-rule:evenodd;fill:rgb(94.509804%,89.803922%,78.039216%);fill-opacity:1" d="M 239.699219 81.000000 C 239.898438 80.933594 240.082031 80.898438 240.250000 80.898438 C 240.082031 80.898438 239.898438 80.933594 239.699219 81.000000 "/>
    <path style="stroke:none;fill-rule:evenodd;fill:rgb(94.509804%,89.803922%,78.039216%);fill-opacity:1" d="M 236.398438 92.101562 C 236.265625 92.167969 236.117188 92.214844 235.949219 92.250000 C 236.117188 92.214844 236.265625 92.167969 236.398438 92.101562 "/>
    <path style="stroke:none;fill-rule:evenodd;fill:rgb(94.509804%,89.803922%,78.039216%);fill-opacity:1" d="M 235.351562 92.398438 C 235.250000 92.433594 235.148438 92.449219 235.050781 92.449219 C 235.148438 92.417969 235.250000 92.398438 235.351562 92.398438 "/>
    <path style="stroke:none;fill-rule:evenodd;fill:rgb(94.509804%,89.803922%,78.039216%);fill-opacity:1" d="M 236.898438 91.898438 C 236.765625 91.964844 236.648438 92.035156 236.550781 92.101562 C 236.648438 92.035156 236.765625 91.964844 236.898438 91.898438 "/>
    <path style="stroke:none;fill-rule:evenodd;fill:rgb(94.509804%,89.803922%,78.039216%);fill-opacity:1" d="M 238.300781 90.500000 C 238.199219 90.632812 238.101562 90.765625 238.000000 90.898438 C 238.101562 90.765625 238.199219 90.632812 238.300781 90.500000 "/>
    <path style="stroke:none;fill-rule:evenodd;fill:rgb(94.509804%,89.803922%,78.039216%);fill-opacity:1" d="M 238.949219 88.851562 C 238.882812 89.148438 238.800781 89.417969 238.699219 89.648438 C 238.800781 89.417969 238.882812 89.148438 238.949219 88.851562 "/>
    <path style="stroke:none;fill-rule:evenodd;fill:rgb(94.509804%,89.803922%,78.039216%);fill-opacity:1" d="M 237.449219 91.500000 C 237.316406 91.632812 237.167969 91.750000 237.000000 91.851562 C 237.167969 91.750000 237.316406 91.632812 237.449219 91.500000 "/>
    <path style="stroke:none;fill-rule:evenodd;fill:rgb(94.509804%,89.803922%,78.039216%);fill-opacity:1" d="M 238.699219 89.648438 C 238.632812 89.882812 238.535156 90.101562 238.398438 90.300781 C 238.500000 90.101562 238.601562 89.882812 238.699219 89.648438 "/>
    <path style="stroke:none;fill-rule:evenodd;fill:rgb(94.509804%,89.803922%,78.039216%);fill-opacity:1" d="M 237.898438 91.050781 C 237.765625 91.214844 237.632812 91.351562 237.500000 91.449219 C 237.632812 91.351562 237.765625 91.214844 237.898438 91.050781 "/>
    <path style="stroke:none;fill-rule:evenodd;fill:rgb(94.509804%,89.803922%,78.039216%);fill-opacity:1" d="M 239.101562 87.898438 C 239.101562 88.132812 239.066406 88.367188 239.000000 88.601562 C 239.035156 88.367188 239.066406 88.132812 239.101562 87.898438 "/>
    <path style="stroke:none;fill-rule:evenodd;fill:rgb(94.509804%,89.803922%,78.039216%);fill-opacity:1" d="M 235.949219 92.300781 C 235.785156 92.332031 235.632812 92.367188 235.500000 92.398438 C 235.632812 92.367188 235.785156 92.332031 235.949219 92.300781 "/>
    <path style="stroke:none;fill-rule:evenodd;fill:rgb(94.509804%,89.803922%,78.039216%);fill-opacity:1" d="M 228.800781 81.351562 C 228.867188 81.382812 228.933594 81.417969 229.000000 81.449219 C 228.933594 81.417969 228.867188 81.382812 228.800781 81.351562 "/>
    <path style="stroke:none;fill-rule:evenodd;fill:rgb(94.509804%,89.803922%,78.039216%);fill-opacity:1" d="M 228.101562 81.101562 C 228.167969 81.132812 228.234375 81.148438 228.300781 81.148438 C 228.234375 81.148438 228.167969 81.132812 228.101562 81.101562 "/>
    <path style="stroke:none;fill-rule:evenodd;fill:rgb(94.509804%,89.803922%,78.039216%);fill-opacity:1" d="M 228.449219 81.250000 C 228.515625 81.285156 228.582031 81.300781 228.648438 81.300781 C 228.582031 81.300781 228.515625 81.285156 228.449219 81.250000 "/>
    <path style="stroke:none;fill-rule:evenodd;fill:rgb(94.509804%,89.803922%,78.039216%);fill-opacity:1" d="M 229.199219 81.500000 C 229.265625 81.535156 229.332031 81.566406 229.398438 81.601562 C 229.332031 81.566406 229.265625 81.535156 229.199219 81.500000 "/>
    <path style="stroke:none;fill-rule:evenodd;fill:rgb(94.509804%,89.803922%,78.039216%);fill-opacity:1" d="M 227.750000 81.050781 C 227.816406 81.050781 227.882812 81.066406 227.949219 81.101562 C 227.882812 81.066406 227.816406 81.050781 227.750000 81.050781 "/>
    <path style="stroke:none;fill-rule:evenodd;fill:rgb(94.509804%,89.803922%,78.039216%);fill-opacity:1" d="M 226.851562 80.898438 C 226.917969 80.898438 227.000000 80.917969 227.101562 80.949219 C 227.000000 80.917969 226.917969 80.898438 226.851562 80.898438 "/>
    <path style="stroke:none;fill-rule:evenodd;fill:rgb(94.509804%,89.803922%,78.039216%);fill-opacity:1" d="M 227.101562 80.898438 C 227.199219 80.898438 227.300781 80.917969 227.398438 80.949219 C 227.300781 80.917969 227.199219 80.898438 227.101562 80.898438 "/>
    <path style="stroke:none;fill-rule:evenodd;fill:rgb(94.509804%,89.803922%,78.039216%);fill-opacity:1" d="M 227.449219 80.949219 C 227.515625 80.949219 227.601562 80.964844 227.699219 81.000000 C 227.601562 80.964844 227.515625 80.949219 227.449219 80.949219 "/>
    <path style="stroke:none;fill-rule:evenodd;fill:rgb(94.509804%,89.803922%,78.039216%);fill-opacity:1" d="M 242.398438 103.898438 C 242.433594 103.898438 242.464844 103.898438 242.500000 103.898438 C 242.464844 103.867188 242.433594 103.832031 242.398438 103.800781 C 242.398438 103.832031 242.398438 103.867188 242.398438 103.898438 "/>
    <path style="stroke:none;fill-rule:evenodd;fill:rgb(94.509804%,89.803922%,78.039216%);fill-opacity:1" d="M 241.898438 81.601562 C 240.566406 84.167969 240.066406 85.765625 240.398438 86.398438 L 240.398438 86.500000 C 240.234375 89.699219 239.433594 91.734375 238.000000 92.601562 C 236.535156 93.433594 235.382812 93.785156 234.550781 93.648438 C 234.015625 93.648438 233.667969 93.632812 233.500000 93.601562 C 233.332031 93.632812 232.984375 93.648438 232.449219 93.648438 C 231.617188 93.785156 230.484375 93.417969 229.050781 92.550781 C 227.582031 91.714844 226.765625 89.699219 226.601562 86.500000 L 226.601562 86.398438 C 226.933594 85.765625 226.433594 84.167969 225.101562 81.601562 L 223.550781 79.800781 L 225.949219 79.648438 C 225.949219 79.648438 226.015625 79.648438 226.148438 79.648438 C 226.851562 79.550781 228.082031 79.832031 229.851562 80.500000 C 230.417969 78.964844 231.351562 77.667969 232.648438 76.601562 L 233.398438 76.050781 L 234.148438 76.601562 C 235.484375 77.699219 236.449219 79.035156 237.050781 80.601562 C 238.851562 79.867188 240.132812 79.550781 240.898438 79.648438 C 241.000000 79.648438 241.066406 79.648438 241.101562 79.648438 L 243.449219 79.800781 L 241.898438 81.601562 M 223.148438 84.699219 C 223.082031 86.667969 222.234375 88.183594 220.601562 89.250000 C 222.234375 90.285156 223.082031 91.785156 223.148438 93.750000 C 223.148438 94.183594 223.101562 94.601562 223.000000 95.000000 C 224.464844 94.398438 226.000000 94.148438 227.601562 94.250000 L 228.199219 94.250000 L 228.300781 94.851562 C 228.566406 96.351562 228.515625 97.832031 228.148438 99.300781 C 228.484375 99.132812 228.851562 99.035156 229.250000 99.000000 C 231.117188 98.898438 232.582031 99.566406 233.648438 101.000000 C 234.750000 99.566406 236.214844 98.898438 238.050781 99.000000 C 238.582031 99.066406 239.082031 99.214844 239.550781 99.449219 C 239.015625 97.714844 238.933594 95.933594 239.300781 94.101562 L 239.449219 93.550781 L 240.300781 93.500000 C 241.601562 93.535156 242.832031 93.765625 244.000000 94.199219 C 243.964844 93.933594 243.949219 93.667969 243.949219 93.398438 C 244.015625 91.398438 244.867188 89.882812 246.500000 88.851562 C 244.867188 87.816406 244.015625 86.316406 243.949219 84.351562 C 244.015625 82.351562 244.867188 80.832031 246.500000 79.800781 C 244.867188 78.765625 244.015625 77.250000 243.949219 75.250000 C 244.015625 73.117188 245.000000 71.535156 246.898438 70.500000 C 243.964844 70.132812 239.898438 69.917969 234.699219 69.851562 C 229.332031 69.851562 224.632812 70.265625 220.601562 71.101562 C 222.234375 72.167969 223.082031 73.683594 223.148438 75.648438 C 223.082031 77.617188 222.234375 79.132812 220.601562 80.199219 C 222.234375 81.234375 223.082031 82.734375 223.148438 84.699219 "/>
    <path style="stroke:none;fill-rule:evenodd;fill:rgb(94.509804%,89.803922%,78.039216%);fill-opacity:1" d="M 237.500000 81.699219 C 237.464844 81.699219 237.433594 81.714844 237.398438 81.750000 C 237.398438 81.750000 237.398438 81.750000 237.398438 81.750000 C 237.433594 81.714844 237.464844 81.699219 237.500000 81.699219 "/>
    <path style="stroke:none;fill-rule:evenodd;fill:rgb(69.019608%,73.725490%,13.333333%);fill-opacity:1" d="M 240.851562 103.398438 C 240.515625 101.734375 239.535156 100.750000 237.898438 100.449219 C 236.300781 100.417969 235.148438 101.132812 234.449219 102.601562 C 234.449219 102.632812 234.464844 102.667969 234.500000 102.699219 L 240.851562 103.398438 "/>
    <path style="stroke:none;fill-rule:evenodd;fill:rgb(69.019608%,73.725490%,13.333333%);fill-opacity:1" d="M 232.949219 102.699219 C 232.351562 101.300781 231.300781 100.550781 229.800781 100.449219 C 229.699219 100.449219 229.582031 100.449219 229.449219 100.449219 C 227.816406 100.750000 226.832031 101.734375 226.500000 103.398438 L 232.949219 102.699219 "/>
    <path style="stroke:none;fill-rule:evenodd;fill:rgb(69.019608%,73.725490%,13.333333%);fill-opacity:1" d="M 248.500000 89.750000 C 246.667969 90.316406 245.683594 91.535156 245.550781 93.398438 C 245.550781 94.132812 245.750000 94.800781 246.148438 95.398438 C 246.714844 95.800781 247.234375 96.250000 247.699219 96.750000 C 247.964844 96.851562 248.234375 96.949219 248.500000 97.050781 L 248.500000 89.750000 "/>
    <path style="stroke:none;fill-rule:evenodd;fill:rgb(69.019608%,73.725490%,13.333333%);fill-opacity:1" d="M 245.550781 84.351562 C 245.683594 86.214844 246.667969 87.433594 248.500000 88.000000 L 248.500000 80.699219 C 246.667969 81.265625 245.683594 82.484375 245.550781 84.351562 "/>
    <path style="stroke:none;fill-rule:evenodd;fill:rgb(69.019608%,73.725490%,13.333333%);fill-opacity:1" d="M 248.500000 78.949219 L 248.500000 71.648438 C 246.667969 72.214844 245.683594 73.433594 245.550781 75.300781 C 245.683594 77.167969 246.667969 78.382812 248.500000 78.949219 "/>
    <path style="stroke:none;fill-rule:evenodd;fill:rgb(69.019608%,73.725490%,13.333333%);fill-opacity:1" d="M 247.050781 98.199219 C 245.382812 96.234375 243.265625 95.183594 240.699219 95.050781 C 240.367188 97.582031 241.000000 99.851562 242.601562 101.851562 C 244.265625 103.816406 246.382812 104.867188 248.949219 105.000000 C 249.285156 102.464844 248.648438 100.199219 247.050781 98.199219 "/>
    <path style="stroke:none;fill-rule:evenodd;fill:rgb(69.019608%,73.725490%,13.333333%);fill-opacity:1" d="M 221.550781 93.750000 C 221.417969 91.882812 220.433594 90.667969 218.601562 90.101562 L 218.601562 97.398438 C 220.433594 96.832031 221.417969 95.617188 221.550781 93.750000 "/>
    <path style="stroke:none;fill-rule:evenodd;fill:rgb(69.019608%,73.725490%,13.333333%);fill-opacity:1" d="M 221.550781 84.699219 C 221.417969 82.832031 220.433594 81.617188 218.601562 81.050781 L 218.601562 88.351562 C 220.433594 87.785156 221.417969 86.566406 221.550781 84.699219 "/>
    <path style="stroke:none;fill-rule:evenodd;fill:rgb(69.019608%,73.725490%,13.333333%);fill-opacity:1" d="M 218.601562 72.000000 L 218.601562 79.300781 C 220.433594 78.734375 221.417969 77.515625 221.550781 75.648438 C 221.417969 73.785156 220.433594 72.566406 218.601562 72.000000 "/>
    <path style="stroke:none;fill-rule:evenodd;fill:rgb(69.019608%,73.725490%,13.333333%);fill-opacity:1" d="M 220.500000 98.601562 C 218.800781 100.535156 218.082031 102.785156 218.351562 105.351562 C 220.917969 105.285156 223.066406 104.316406 224.800781 102.449219 C 226.464844 100.484375 227.183594 98.234375 226.949219 95.699219 C 224.382812 95.765625 222.234375 96.734375 220.500000 98.601562 "/>
    <path style="stroke:none;fill-rule:evenodd;fill:rgb(69.019608%,73.725490%,13.333333%);fill-opacity:1" d="M 230.648438 82.398438 C 230.714844 82.464844 230.785156 82.535156 230.851562 82.601562 C 230.785156 82.535156 230.714844 82.464844 230.648438 82.398438 "/>
    <path style="stroke:none;fill-rule:evenodd;fill:rgb(69.019608%,73.725490%,13.333333%);fill-opacity:1" d="M 231.000000 82.699219 C 231.066406 82.765625 231.148438 82.851562 231.250000 82.949219 C 231.148438 82.851562 231.066406 82.765625 231.000000 82.699219 "/>
    <path style="stroke:none;fill-rule:evenodd;fill:rgb(69.019608%,73.725490%,13.333333%);fill-opacity:1" d="M 231.351562 83.050781 C 231.449219 83.183594 231.566406 83.316406 231.699219 83.449219 C 231.566406 83.316406 231.449219 83.183594 231.351562 83.050781 "/>
    <path style="stroke:none;fill-rule:evenodd;fill:rgb(69.019608%,73.725490%,13.333333%);fill-opacity:1" d="M 234.500000 84.851562 C 234.566406 84.750000 234.617188 84.648438 234.648438 84.550781 C 234.617188 84.648438 234.566406 84.750000 234.500000 84.851562 "/>
    <path style="stroke:none;fill-rule:evenodd;fill:rgb(69.019608%,73.725490%,13.333333%);fill-opacity:1" d="M 235.050781 83.898438 C 235.117188 83.765625 235.199219 83.648438 235.300781 83.550781 C 235.199219 83.648438 235.117188 83.765625 235.050781 83.898438 "/>
    <path style="stroke:none;fill-rule:evenodd;fill:rgb(69.019608%,73.725490%,13.333333%);fill-opacity:1" d="M 235.398438 83.449219 C 235.500000 83.316406 235.617188 83.183594 235.750000 83.050781 C 235.617188 83.183594 235.500000 83.316406 235.398438 83.449219 "/>
    <path style="stroke:none;fill-rule:evenodd;fill:rgb(69.019608%,73.725490%,13.333333%);fill-opacity:1" d="M 235.800781 82.949219 C 235.867188 82.851562 235.949219 82.765625 236.050781 82.699219 C 235.949219 82.765625 235.867188 82.851562 235.800781 82.949219 "/>
    <path style="stroke:none;fill-rule:evenodd;fill:rgb(69.019608%,73.725490%,13.333333%);fill-opacity:1" d="M 231.750000 83.550781 C 231.816406 83.648438 231.898438 83.765625 232.000000 83.898438 C 231.898438 83.765625 231.816406 83.648438 231.750000 83.550781 "/>
    <path style="stroke:none;fill-rule:evenodd;fill:rgb(69.019608%,73.725490%,13.333333%);fill-opacity:1" d="M 234.250000 85.449219 C 234.285156 85.316406 234.332031 85.199219 234.398438 85.101562 C 234.332031 85.199219 234.285156 85.316406 234.250000 85.449219 "/>
    <path style="stroke:none;fill-rule:evenodd;fill:rgb(69.019608%,73.725490%,13.333333%);fill-opacity:1" d="M 233.449219 77.550781 C 232.285156 78.484375 231.433594 79.667969 230.898438 81.101562 C 231.398438 81.464844 231.882812 81.898438 232.351562 82.398438 C 232.816406 82.933594 233.214844 83.515625 233.550781 84.148438 C 233.851562 83.515625 234.234375 82.933594 234.699219 82.398438 C 235.132812 81.933594 235.582031 81.535156 236.050781 81.199219 C 235.515625 79.734375 234.648438 78.515625 233.449219 77.550781 "/>
    <path style="stroke:none;fill-rule:evenodd;fill:rgb(69.019608%,73.725490%,13.333333%);fill-opacity:1" d="M 234.750000 84.351562 C 234.816406 84.250000 234.882812 84.148438 234.949219 84.050781 C 234.882812 84.148438 234.816406 84.250000 234.750000 84.351562 "/>
    <path style="stroke:none;fill-rule:evenodd;fill:rgb(69.019608%,73.725490%,13.333333%);fill-opacity:1" d="M 236.351562 82.449219 C 236.285156 82.484375 236.234375 82.535156 236.199219 82.601562 C 236.234375 82.535156 236.285156 82.484375 236.351562 82.449219 C 236.351562 82.449219 236.351562 82.449219 236.351562 82.449219 "/>
    <path style="stroke:none;fill-rule:evenodd;fill:rgb(69.019608%,73.725490%,13.333333%);fill-opacity:1" d="M 232.101562 84.050781 C 232.167969 84.148438 232.234375 84.250000 232.300781 84.351562 C 232.234375 84.250000 232.167969 84.148438 232.101562 84.050781 "/>
    <path style="stroke:none;fill-rule:evenodd;fill:rgb(69.019608%,73.725490%,13.333333%);fill-opacity:1" d="M 232.398438 84.550781 C 232.464844 84.648438 232.515625 84.750000 232.550781 84.851562 C 232.515625 84.750000 232.464844 84.648438 232.398438 84.550781 "/>
    <path style="stroke:none;fill-rule:evenodd;fill:rgb(69.019608%,73.725490%,13.333333%);fill-opacity:1" d="M 232.648438 85.101562 C 232.683594 85.199219 232.734375 85.300781 232.800781 85.398438 C 232.734375 85.300781 232.683594 85.199219 232.648438 85.101562 "/>
    <path style="stroke:none;fill-rule:evenodd;fill:rgb(94.509804%,89.803922%,78.039216%);fill-opacity:1" d="M 286.148438 80.148438 C 285.148438 81.515625 283.882812 82.199219 282.351562 82.199219 C 281.449219 82.199219 280.566406 81.964844 279.699219 81.500000 C 278.535156 80.832031 277.816406 79.832031 277.550781 78.500000 C 277.382812 77.667969 277.433594 76.785156 277.699219 75.851562 C 277.300781 75.949219 276.917969 76.000000 276.550781 76.000000 C 274.214844 75.765625 272.667969 74.699219 271.898438 72.800781 L 271.250000 72.898438 C 270.917969 74.867188 271.714844 77.382812 273.648438 80.449219 C 275.214844 82.148438 277.500000 83.015625 280.500000 83.050781 L 280.699219 83.050781 C 283.898438 83.117188 286.484375 83.800781 288.449219 85.101562 C 290.382812 86.398438 291.816406 87.785156 292.750000 89.250000 C 292.582031 87.449219 292.117188 85.398438 291.351562 83.101562 C 288.984375 82.964844 287.250000 81.984375 286.148438 80.148438 "/>
    <path style="stroke:none;fill-rule:evenodd;fill:rgb(90.980392%,59.215686%,9.803922%);fill-opacity:1" d="M 232.750000 85.449219 C 232.714844 85.316406 232.683594 85.199219 232.648438 85.101562 C 232.617188 85.035156 232.582031 84.949219 232.550781 84.851562 C 232.484375 84.750000 232.433594 84.648438 232.398438 84.550781 C 232.332031 84.484375 232.285156 84.417969 232.250000 84.351562 C 232.214844 84.250000 232.167969 84.148438 232.101562 84.050781 C 232.035156 83.984375 231.984375 83.933594 231.949219 83.898438 C 231.882812 83.765625 231.816406 83.648438 231.750000 83.550781 C 231.714844 83.515625 231.683594 83.484375 231.648438 83.449219 C 231.550781 83.316406 231.449219 83.183594 231.351562 83.050781 C 231.316406 83.050781 231.285156 83.015625 231.250000 82.949219 C 231.148438 82.882812 231.066406 82.816406 231.000000 82.750000 C 230.933594 82.683594 230.882812 82.632812 230.851562 82.601562 C 230.785156 82.535156 230.714844 82.464844 230.648438 82.398438 C 230.582031 82.367188 230.535156 82.332031 230.500000 82.300781 C 230.398438 82.265625 230.316406 82.214844 230.250000 82.148438 C 230.214844 82.117188 230.167969 82.082031 230.101562 82.050781 C 230.035156 81.984375 229.964844 81.933594 229.898438 81.898438 C 229.832031 81.867188 229.785156 81.832031 229.750000 81.800781 C 229.683594 81.765625 229.617188 81.734375 229.550781 81.699219 C 229.484375 81.667969 229.417969 81.632812 229.351562 81.601562 C 229.285156 81.566406 229.214844 81.535156 229.148438 81.500000 C 229.117188 81.500000 229.066406 81.484375 229.000000 81.449219 C 228.933594 81.417969 228.867188 81.382812 228.800781 81.351562 C 228.734375 81.351562 228.683594 81.332031 228.648438 81.300781 C 228.582031 81.300781 228.515625 81.285156 228.449219 81.250000 C 228.382812 81.214844 228.332031 81.199219 228.300781 81.199219 C 228.234375 81.167969 228.167969 81.148438 228.101562 81.148438 C 228.066406 81.117188 228.015625 81.101562 227.949219 81.101562 C 227.882812 81.066406 227.816406 81.050781 227.750000 81.050781 C 227.714844 81.050781 227.683594 81.035156 227.648438 81.000000 C 227.582031 81.000000 227.500000 81.000000 227.398438 81.000000 C 227.398438 80.964844 227.382812 80.949219 227.351562 80.949219 C 227.250000 80.949219 227.148438 80.933594 227.050781 80.898438 C 227.050781 80.898438 227.050781 80.898438 227.050781 80.898438 C 226.984375 80.898438 226.898438 80.898438 226.800781 80.898438 C 226.800781 80.898438 226.785156 80.898438 226.750000 80.898438 C 226.683594 80.867188 226.632812 80.851562 226.601562 80.851562 C 226.566406 80.851562 226.535156 80.851562 226.500000 80.851562 C 226.464844 80.851562 226.433594 80.851562 226.398438 80.851562 C 226.367188 80.851562 226.351562 80.851562 226.351562 80.851562 C 226.316406 80.851562 226.285156 80.851562 226.250000 80.851562 C 226.214844 80.851562 226.199219 80.851562 226.199219 80.851562 C 226.167969 80.851562 226.132812 80.851562 226.101562 80.851562 C 226.101562 80.851562 226.082031 80.851562 226.050781 80.851562 C 226.050781 80.851562 226.050781 80.851562 226.050781 80.851562 C 226.015625 80.851562 226.000000 80.851562 226.000000 80.851562 C 226.964844 82.117188 227.515625 83.351562 227.648438 84.550781 C 227.816406 85.750000 227.867188 86.398438 227.800781 86.500000 C 227.800781 86.898438 227.816406 87.265625 227.851562 87.601562 C 227.882812 87.699219 227.898438 87.800781 227.898438 87.898438 C 227.933594 88.167969 227.964844 88.398438 228.000000 88.601562 C 228.035156 88.699219 228.050781 88.785156 228.050781 88.851562 C 228.148438 89.148438 228.234375 89.417969 228.300781 89.648438 C 228.300781 89.683594 228.300781 89.683594 228.300781 89.648438 C 228.398438 89.917969 228.515625 90.148438 228.648438 90.351562 C 228.683594 90.417969 228.714844 90.464844 228.750000 90.500000 C 228.851562 90.667969 228.933594 90.800781 229.000000 90.898438 C 229.066406 90.964844 229.117188 91.015625 229.148438 91.050781 C 229.285156 91.214844 229.417969 91.367188 229.550781 91.500000 C 229.550781 91.500000 229.550781 91.500000 229.550781 91.500000 C 229.714844 91.601562 229.867188 91.699219 230.000000 91.800781 C 230.066406 91.832031 230.117188 91.867188 230.148438 91.898438 C 230.250000 91.964844 230.367188 92.015625 230.500000 92.050781 C 230.535156 92.082031 230.582031 92.117188 230.648438 92.148438 C 230.785156 92.183594 230.933594 92.234375 231.101562 92.300781 C 231.101562 92.300781 231.101562 92.300781 231.101562 92.300781 C 231.234375 92.332031 231.382812 92.367188 231.550781 92.398438 C 231.582031 92.398438 231.617188 92.398438 231.648438 92.398438 C 231.785156 92.433594 231.898438 92.449219 232.000000 92.449219 C 232.035156 92.449219 232.066406 92.449219 232.101562 92.449219 C 232.234375 92.484375 232.367188 92.500000 232.500000 92.500000 C 232.464844 92.500000 232.464844 92.500000 232.500000 92.500000 C 232.500000 92.500000 232.500000 92.500000 232.500000 92.500000 C 232.199219 89.867188 232.332031 87.617188 232.898438 85.750000 C 232.898438 85.714844 232.882812 85.699219 232.851562 85.699219 C 232.851562 85.601562 232.816406 85.515625 232.750000 85.449219 "/>
    <path style="stroke:none;fill-rule:evenodd;fill:rgb(90.980392%,59.215686%,9.803922%);fill-opacity:1" d="M 241.000000 80.851562 C 240.964844 80.851562 240.949219 80.851562 240.949219 80.851562 C 240.917969 80.851562 240.882812 80.851562 240.851562 80.851562 C 240.851562 80.851562 240.832031 80.851562 240.800781 80.851562 C 240.765625 80.851562 240.734375 80.851562 240.699219 80.851562 C 240.699219 80.851562 240.683594 80.851562 240.648438 80.851562 C 240.617188 80.851562 240.582031 80.851562 240.550781 80.851562 C 240.515625 80.851562 240.484375 80.851562 240.449219 80.851562 C 240.417969 80.882812 240.367188 80.898438 240.300781 80.898438 C 240.300781 80.898438 240.285156 80.898438 240.250000 80.898438 C 240.082031 80.898438 239.898438 80.917969 239.699219 80.949219 C 239.667969 80.949219 239.648438 80.964844 239.648438 81.000000 C 239.550781 81.000000 239.464844 81.000000 239.398438 81.000000 C 239.367188 81.035156 239.332031 81.050781 239.300781 81.050781 C 239.234375 81.050781 239.167969 81.066406 239.101562 81.101562 C 239.035156 81.101562 238.984375 81.117188 238.949219 81.148438 C 238.882812 81.148438 238.816406 81.167969 238.750000 81.199219 C 238.714844 81.199219 238.667969 81.214844 238.601562 81.250000 C 238.535156 81.250000 238.464844 81.265625 238.398438 81.300781 C 238.367188 81.332031 238.316406 81.351562 238.250000 81.351562 C 238.183594 81.382812 238.117188 81.417969 238.050781 81.449219 C 237.984375 81.484375 237.933594 81.500000 237.898438 81.500000 C 237.832031 81.535156 237.765625 81.566406 237.699219 81.601562 C 237.632812 81.632812 237.566406 81.667969 237.500000 81.699219 C 237.500000 81.734375 237.484375 81.750000 237.449219 81.750000 C 237.382812 81.785156 237.332031 81.800781 237.300781 81.800781 C 237.265625 81.832031 237.214844 81.867188 237.148438 81.898438 C 237.082031 81.964844 237.015625 82.015625 236.949219 82.050781 C 236.882812 82.082031 236.832031 82.117188 236.800781 82.148438 C 236.699219 82.183594 236.617188 82.234375 236.550781 82.300781 C 236.515625 82.332031 236.464844 82.367188 236.398438 82.398438 C 236.398438 82.433594 236.382812 82.464844 236.351562 82.500000 C 236.285156 82.535156 236.234375 82.566406 236.199219 82.601562 C 236.167969 82.632812 236.117188 82.683594 236.050781 82.750000 C 235.984375 82.816406 235.898438 82.882812 235.800781 82.949219 C 235.800781 83.015625 235.765625 83.050781 235.699219 83.050781 C 235.601562 83.183594 235.500000 83.316406 235.398438 83.449219 C 235.367188 83.484375 235.332031 83.515625 235.300781 83.550781 C 235.234375 83.648438 235.167969 83.765625 235.101562 83.898438 C 235.035156 83.933594 234.984375 83.984375 234.949219 84.050781 C 234.917969 84.148438 234.867188 84.250000 234.800781 84.351562 C 234.765625 84.417969 234.734375 84.484375 234.699219 84.550781 C 234.632812 84.648438 234.566406 84.750000 234.500000 84.851562 C 234.464844 84.949219 234.433594 85.035156 234.398438 85.101562 C 234.367188 85.199219 234.332031 85.316406 234.300781 85.449219 C 234.234375 85.515625 234.199219 85.601562 234.199219 85.699219 C 234.167969 85.699219 234.148438 85.714844 234.148438 85.750000 C 234.117188 85.851562 234.082031 85.949219 234.050781 86.050781 C 234.015625 86.148438 234.000000 86.250000 234.000000 86.351562 C 233.933594 86.449219 233.898438 86.566406 233.898438 86.699219 C 233.867188 86.800781 233.832031 86.917969 233.800781 87.050781 C 233.800781 87.148438 233.785156 87.285156 233.750000 87.449219 C 233.714844 87.550781 233.699219 87.667969 233.699219 87.800781 C 233.667969 87.933594 233.648438 88.066406 233.648438 88.199219 C 233.617188 88.332031 233.601562 88.464844 233.601562 88.601562 C 233.601562 88.734375 233.582031 88.882812 233.550781 89.050781 C 233.550781 89.183594 233.550781 89.316406 233.550781 89.449219 C 233.550781 89.617188 233.550781 89.800781 233.550781 90.000000 C 233.550781 90.101562 233.550781 90.214844 233.550781 90.351562 C 233.550781 90.582031 233.566406 90.800781 233.601562 91.000000 C 233.601562 91.132812 233.601562 91.250000 233.601562 91.351562 C 233.632812 91.683594 233.667969 92.035156 233.699219 92.398438 C 233.734375 92.433594 234.015625 92.464844 234.550781 92.500000 C 234.550781 92.500000 234.550781 92.500000 234.550781 92.500000 C 234.582031 92.500000 234.582031 92.500000 234.550781 92.500000 C 234.683594 92.500000 234.816406 92.484375 234.949219 92.449219 C 234.984375 92.449219 235.015625 92.449219 235.050781 92.449219 C 235.148438 92.449219 235.265625 92.433594 235.398438 92.398438 C 235.433594 92.398438 235.464844 92.398438 235.500000 92.398438 C 235.667969 92.367188 235.816406 92.332031 235.949219 92.300781 C 235.949219 92.300781 235.949219 92.300781 235.949219 92.300781 C 236.117188 92.265625 236.265625 92.214844 236.398438 92.148438 C 236.464844 92.117188 236.515625 92.082031 236.550781 92.050781 C 236.683594 92.015625 236.800781 91.964844 236.898438 91.898438 C 236.933594 91.867188 236.984375 91.832031 237.050781 91.800781 C 237.183594 91.699219 237.332031 91.601562 237.500000 91.500000 C 237.500000 91.500000 237.500000 91.500000 237.500000 91.500000 C 237.632812 91.367188 237.765625 91.214844 237.898438 91.050781 C 237.933594 91.015625 237.984375 90.964844 238.050781 90.898438 C 238.117188 90.800781 238.199219 90.667969 238.300781 90.500000 C 238.332031 90.464844 238.367188 90.417969 238.398438 90.351562 C 238.535156 90.148438 238.648438 89.917969 238.750000 89.648438 C 238.750000 89.683594 238.750000 89.683594 238.750000 89.648438 C 238.816406 89.417969 238.898438 89.148438 239.000000 88.851562 C 239.000000 88.785156 239.015625 88.699219 239.050781 88.601562 C 239.082031 88.398438 239.117188 88.167969 239.148438 87.898438 C 239.183594 87.800781 239.199219 87.699219 239.199219 87.601562 C 239.234375 87.265625 239.250000 86.898438 239.250000 86.500000 C 239.183594 86.398438 239.234375 85.750000 239.398438 84.550781 C 239.535156 83.351562 240.082031 82.117188 241.050781 80.851562 C 241.050781 80.851562 241.035156 80.851562 241.000000 80.851562 C 241.000000 80.851562 241.000000 80.851562 241.000000 80.851562 "/>
    <path style="stroke:none;fill-rule:evenodd;fill:rgb(69.019608%,73.725490%,13.333333%);fill-opacity:1" d="M 226.898438 30.351562 C 228.898438 32.050781 231.183594 32.898438 233.750000 32.898438 C 236.316406 32.898438 238.582031 32.050781 240.550781 30.351562 C 237.917969 29.917969 235.648438 28.449219 233.750000 25.949219 L 233.699219 26.000000 L 233.699219 25.949219 C 231.832031 28.382812 229.566406 29.851562 226.898438 30.351562 "/>
    <path style="stroke:none;fill-rule:evenodd;fill:rgb(90.980392%,59.215686%,9.803922%);fill-opacity:1" d="M 233.699219 25.351562 C 234.265625 25.351562 234.734375 25.148438 235.101562 24.750000 C 235.398438 24.417969 235.550781 24.000000 235.550781 23.500000 C 235.449219 22.367188 234.832031 21.750000 233.699219 21.648438 C 232.566406 21.750000 231.949219 22.367188 231.851562 23.500000 C 231.851562 24.000000 232.015625 24.417969 232.351562 24.750000 C 232.683594 25.148438 233.132812 25.351562 233.699219 25.351562 "/>
    <path style="stroke:none;fill-rule:evenodd;fill:rgb(94.509804%,89.803922%,78.039216%);fill-opacity:1" d="M 233.851562 46.300781 C 239.617188 46.332031 245.082031 46.984375 250.250000 48.250000 L 250.250000 43.550781 L 217.351562 43.550781 L 217.351562 48.250000 C 222.515625 46.984375 228.015625 46.332031 233.851562 46.300781 "/>
    <path style="stroke:none;fill-rule:evenodd;fill:rgb(69.019608%,73.725490%,13.333333%);fill-opacity:1" d="M 281.300781 73.351562 L 280.898438 73.199219 C 278.433594 72.632812 276.332031 72.382812 274.601562 72.449219 C 274.132812 72.449219 273.714844 72.464844 273.351562 72.500000 C 273.917969 73.667969 274.984375 74.351562 276.550781 74.550781 C 276.882812 74.550781 277.214844 74.500000 277.550781 74.398438 C 277.785156 74.332031 278.000000 74.250000 278.199219 74.148438 C 278.500000 74.015625 278.750000 73.949219 278.949219 73.949219 L 279.351562 73.949219 L 279.800781 74.699219 L 279.601562 75.101562 C 279.000000 76.199219 278.785156 77.234375 278.949219 78.199219 C 279.148438 79.101562 279.648438 79.765625 280.449219 80.199219 C 281.082031 80.566406 281.714844 80.750000 282.351562 80.750000 C 283.683594 80.750000 284.750000 79.984375 285.550781 78.449219 L 285.550781 77.851562 L 286.250000 77.800781 C 286.550781 77.832031 286.750000 77.933594 286.851562 78.101562 L 287.000000 78.250000 L 287.050781 78.398438 C 287.582031 80.199219 288.851562 81.265625 290.851562 81.601562 C 289.816406 79.265625 288.484375 77.417969 286.851562 76.050781 L 286.351562 75.648438 C 285.648438 75.148438 284.933594 74.734375 284.199219 74.398438 C 283.265625 74.000000 282.300781 73.648438 281.300781 73.351562 "/>
  </g>
  <g id="surface4">
    <defs><path id="flsTextPath551" d="M 0 88 C 0 39.398943 39.398943 0 88 0 C 136.601057 0 176 39.398943 176 88"/></defs>
    <text style="fill:rgb(95,96,75)" font-family="Albertus Medium" font-size="50" transform="matrix(1,0,0,1,152,70)" xml:space="preserve" text-anchor="middle"><textPath xlink:href="#flsTextPath551" startOffset="50%"><![CDATA[HARYANA]]></textPath></text>
    <text style="fill:rgb(95,96,75)" font-family="Albertus Medium" font-size="35" transform="matrix(1,0,0,1,82,267)" xml:space="preserve"><![CDATA[Indische Spezialitäten]]></text>
  </g>
</svg>